<svg xmlns="http://www.w3.org/2000/svg" width="878" height="668" viewBox="0 0 878 668">
<g>
<path d="M 205.21 491.19 C203.90,492.50 22.99,492.70 21.91,491.39 C21.35,490.71 21.08,430.39 21.24,338.60 C21.47,205.25 21.68,186.82 23.00,186.00 C25.08,184.71 204.67,184.65 205.47,185.94 C206.38,187.42 206.13,490.27 205.21,491.19 ZM 33.00 481.02 C33.83,481.54 40.86,481.98 48.63,481.98 C60.56,482.00 62.97,481.74 64.13,480.35 C65.27,478.97 65.54,460.57 65.74,371.10 C65.86,311.92 66.16,262.71 66.39,261.75 C66.79,260.11 70.67,260.00 130.37,260.00 C192.51,260.00 193.95,259.96 194.98,258.04 C195.66,256.76 195.94,246.00 195.77,227.29 L 195.50 198.50 L 115.00 198.26 C65.34,198.12 33.93,198.39 33.00,198.98 C31.68,199.81 31.50,216.58 31.50,340.00 C31.50,463.42 31.68,480.19 33.00,481.02 ZM 77.57 480.43 C78.84,481.70 81.66,482.00 92.32,481.98 C99.57,481.98 106.18,481.54 107.00,481.02 C108.30,480.20 108.57,470.58 109.00,407.79 L 109.50 335.50 L 151.41 335.24 C180.32,335.06 193.74,334.63 194.66,333.87 C196.66,332.21 196.62,272.76 194.62,271.10 C193.61,270.26 177.81,270.03 135.58,270.23 C85.62,270.46 77.80,270.70 76.98,272.00 C76.40,272.92 76.02,313.24 76.02,376.18 C76.00,468.20 76.16,479.02 77.57,480.43 ZM 122.04 480.07 C122.98,481.82 124.24,482.00 135.84,482.00 C144.43,482.00 148.99,481.61 149.80,480.80 C150.69,479.91 151.00,470.44 151.00,444.36 C151.00,417.26 151.29,408.93 152.25,408.31 C152.94,407.86 162.95,407.27 174.50,407.00 L 195.50 406.50 L 195.78 378.00 C195.93,362.33 195.81,348.49 195.51,347.25 L 194.96 345.00 L 159.18 345.00 C132.68,345.00 123.09,345.31 122.20,346.20 C120.61,347.79 120.46,477.11 122.04,480.07 ZM 704.25 308.01 C702.74,308.02 699.81,308.30 697.75,308.64 C691.08,309.74 690.99,309.01 691.07,256.78 C691.11,231.88 691.45,209.48 691.82,207.00 L 692.50 202.50 L 698.90 202.20 C702.42,202.03 705.66,202.26 706.10,202.70 C706.54,203.14 706.98,210.80 707.08,219.73 C707.21,232.08 707.58,236.24 708.62,237.10 C710.48,238.65 761.79,238.61 763.33,237.07 C764.00,236.40 764.51,229.80 764.66,219.98 C764.79,211.17 765.18,203.52 765.51,202.98 C766.52,201.35 778.69,201.75 779.34,203.44 C779.64,204.24 779.93,227.60 779.97,255.37 L 780.05 305.85 L 777.86 307.38 C775.66,308.93 767.53,308.67 765.68,307.00 C765.23,306.60 764.91,295.40 764.96,282.13 C765.03,266.74 764.68,257.27 764.00,255.99 C762.97,254.08 761.88,254.00 736.16,254.00 C716.68,254.00 709.07,254.33 708.20,255.20 C707.33,256.07 707.00,263.47 707.00,282.20 L 707.00 308.00 ZM 641.35 491.02 C639.95,492.36 631.67,493.02 629.20,491.99 L 626.90 491.03 L 627.07 466.01 C627.20,447.32 626.93,440.62 626.00,439.50 C624.95,438.23 620.54,438.00 597.85,438.00 L 570.95 438.00 L 569.94 440.66 C569.34,442.23 568.98,452.97 569.06,466.61 C569.13,479.41 568.89,490.36 568.53,490.94 C568.18,491.52 565.00,492.00 561.48,492.00 C555.00,492.00 553.01,490.81 553.56,487.25 C553.66,486.56 553.81,463.48 553.88,435.96 L 554.00 385.91 L 561.25 386.21 L 568.50 386.50 L 569.00 403.20 C569.33,414.10 569.91,420.32 570.68,421.09 C572.25,422.65 623.82,422.40 625.72,420.82 C626.66,420.04 627.00,415.76 627.00,404.81 C627.00,396.42 627.45,389.02 628.04,387.93 C628.88,386.36 630.16,386.00 634.98,386.00 C638.22,386.00 641.12,386.38 641.40,386.84 C642.29,388.28 642.24,490.16 641.35,491.02 ZM 287.68 492.01 C285.93,492.02 283.60,492.22 282.50,492.46 C282.37,492.49 282.24,492.51 282.12,492.54 C281.43,492.70 280.86,492.83 280.38,492.67 C278.00,491.88 278.00,483.91 278.00,436.28 C278.00,434.58 278.00,432.84 278.00,431.04 C278.00,382.20 278.26,370.03 279.31,369.16 C281.39,367.43 347.03,367.44 348.13,369.17 C349.10,370.71 349.28,379.09 348.39,381.42 C347.86,382.80 344.58,383.00 321.93,383.00 C297.39,383.00 296.02,383.10 295.04,384.93 C293.67,387.48 293.65,420.66 295.01,421.50 C295.56,421.85 306.25,422.10 318.76,422.06 C331.27,422.02 342.85,422.37 344.50,422.82 C347.47,423.63 347.50,423.72 347.50,430.57 L 347.50 437.50 L 321.68 437.62 C305.14,437.70 295.48,438.12 294.80,438.80 C294.13,439.47 293.74,448.67 293.72,464.51 C293.67,491.63 293.59,491.99 287.68,492.01 ZM 328.07 307.96 C327.00,308.53 325.76,308.94 325.32,308.87 C317.85,307.73 315.68,307.11 314.93,305.92 C314.43,305.13 314.02,281.49 314.02,252.36 C314.00,203.63 313.89,200.17 312.25,199.54 C311.29,199.16 303.70,198.90 295.39,198.95 L 295.38 198.95 C284.57,199.02 280.39,199.04 278.87,197.05 C277.92,195.78 278.02,193.72 278.20,190.34 L 278.20 190.33 L 278.50 184.50 L 322.23 184.24 L 365.96 183.98 L 366.54 186.31 C366.86,187.59 366.98,190.85 366.81,193.57 L 366.50 198.50 L 349.57 198.77 C339.16,198.94 332.14,199.47 331.32,200.15 C330.26,201.03 330.00,211.49 330.00,254.09 C330.00,305.31 329.94,306.96 328.07,307.96 ZM 503.00 490.51 C501.93,491.79 495.75,492.00 459.35,492.00 C426.34,492.00 416.83,491.72 416.46,490.75 C416.20,490.06 416.10,462.27 416.24,429.00 L 416.50 368.50 L 423.75 368.21 C429.16,367.99 431.00,368.24 431.01,369.21 C431.02,369.92 431.02,393.18 431.03,420.89 C431.03,448.61 431.29,472.31 431.61,473.57 C431.92,474.83 432.90,476.13 433.78,476.47 C434.66,476.81 450.56,477.06 469.12,477.03 C502.00,476.97 502.87,477.02 503.49,478.97 C504.58,482.39 504.29,488.94 503.00,490.51 ZM 163.00 481.02 C163.82,481.54 170.88,481.98 178.68,481.98 C190.25,482.00 193.15,481.71 194.43,480.43 C195.79,479.07 196.00,474.88 195.98,449.68 C195.98,433.01 195.56,419.86 195.02,419.00 C194.25,417.78 191.39,417.50 179.79,417.50 C178.19,417.50 176.72,417.48 175.39,417.46 C169.69,417.39 166.28,417.34 164.26,418.99 C161.27,421.43 161.31,427.58 161.40,442.85 C161.42,445.27 161.43,447.91 161.44,450.80 C161.49,475.68 161.72,480.21 163.00,481.02 ZM 568.00 288.50 C566.73,290.04 556.03,290.70 554.67,289.33 C554.30,288.97 554.00,269.71 554.00,246.53 C554.00,215.10 554.30,204.10 555.20,203.20 C556.57,201.83 565.82,201.60 567.84,202.88 C569.72,204.07 569.88,286.24 568.00,288.50 ZM 430.63 288.75 C429.26,290.71 417.38,290.42 416.61,288.42 C415.68,286.00 415.92,204.68 416.86,203.20 C417.43,202.29 419.64,201.99 424.09,202.20 L 430.50 202.50 L 431.00 245.00 C431.28,268.51 431.11,288.06 430.63,288.75 ZM 502.98 288.42 C502.46,288.94 499.39,289.56 496.16,289.79 C491.33,290.14 490.18,289.92 489.65,288.53 C489.29,287.60 489.00,268.46 489.00,245.99 C489.00,210.19 489.19,204.95 490.57,203.57 C492.38,201.77 502.48,201.35 503.52,203.04 C504.56,204.72 504.03,287.37 502.98,288.42 ZM 743.05 489.91 C742.31,491.28 740.67,491.73 735.76,491.89 C732.28,492.00 729.12,491.79 728.76,491.42 C727.92,490.58 727.75,430.48 728.58,426.34 C729.85,420.02 742.14,419.96 743.40,426.26 C744.40,431.23 744.08,487.98 743.05,489.91 ZM 622.75 307.50 C620.42,308.32 574.86,308.51 573.42,307.70 C571.63,306.70 571.46,295.94 573.20,294.20 C574.07,293.33 581.11,293.00 598.59,293.00 C600.43,293.00 602.13,293.00 603.71,292.99 C617.42,292.97 621.92,292.96 623.37,295.06 C624.07,296.08 624.05,297.61 624.02,299.88 C624.01,300.42 624.00,300.99 624.00,301.61 C624.00,305.07 623.54,307.22 622.75,307.50 ZM 483.43 198.02 C482.02,198.56 470.53,199.00 457.90,199.00 C439.45,199.00 434.83,198.73 434.41,197.64 C434.13,196.89 434.03,193.63 434.20,190.39 L 434.50 184.50 L 459.00 184.00 C472.48,183.72 484.06,183.89 484.75,184.37 C485.51,184.90 486.00,187.56 486.00,191.15 C486.00,196.56 485.79,197.13 483.43,198.02 ZM 484.80 306.80 C483.20,308.40 435.44,308.52 434.45,306.92 C433.56,305.48 433.53,295.56 434.42,294.13 C435.34,292.64 481.28,292.54 484.07,294.04 C485.60,294.86 486.00,296.15 486.00,300.34 C486.00,303.23 485.46,306.14 484.80,306.80 ZM 622.80 197.80 C621.93,198.67 614.99,199.00 597.84,199.00 C596.92,199.00 596.04,199.00 595.19,199.00 C579.21,199.01 574.22,199.01 572.68,196.71 C571.98,195.66 571.99,194.15 572.00,191.95 C572.00,191.69 572.00,191.42 572.00,191.15 C572.00,190.73 572.00,190.34 571.99,189.97 C571.97,188.18 571.95,186.93 572.52,186.05 C573.85,183.98 578.41,183.98 593.71,184.00 C595.06,184.00 596.48,184.00 598.00,184.00 C619.68,184.00 622.86,184.20 623.39,185.58 C624.45,188.33 624.05,196.55 622.80,197.80 ZM 760.91 197.61 C759.21,199.66 712.73,199.58 711.02,197.53 C710.38,196.76 710.03,193.65 710.20,190.33 L 710.50 184.50 L 761.50 184.50 L 761.80 190.33 C761.98,193.82 761.62,196.75 760.91,197.61 ZM 623.50 368.50 L 623.50 382.50 L 598.23 382.77 C577.48,382.99 572.86,382.79 572.42,381.66 C572.13,380.90 572.03,377.63 572.20,374.39 L 572.50 368.50 ZM 365.42 419.39 C364.55,419.73 361.66,420.00 358.99,420.00 C351.18,420.00 350.90,419.35 351.22,401.65 L 351.50 386.50 L 358.41 386.20 C363.26,385.99 365.57,386.29 366.15,387.20 C366.60,387.92 366.98,395.31 366.98,403.64 C367.00,416.54 366.77,418.88 365.42,419.39 ZM 705.90 400.62 C704.58,402.21 695.34,402.50 693.00,401.02 C691.80,400.27 691.44,397.08 691.18,385.18 L 691.18 385.11 C690.95,374.32 690.86,370.05 692.86,368.52 C694.17,367.52 696.38,367.70 700.05,367.99 L 700.08 367.99 L 706.50 368.50 L 706.78 383.87 C706.97,394.35 706.69,399.67 705.90,400.62 ZM 779.50 368.50 L 779.50 401.50 L 772.78 401.80 C772.48,401.81 772.19,401.82 771.91,401.84 C769.36,401.96 767.72,402.03 766.69,401.28 C764.87,399.95 764.95,396.01 765.17,385.09 C765.18,384.42 765.20,383.72 765.21,383.00 L 765.50 368.50 ZM 760.75 418.73 C758.87,420.20 755.95,420.61 751.50,420.03 L 747.50 419.50 L 746.77 413.00 C746.15,407.46 746.30,406.30 747.77,405.18 C749.72,403.69 758.54,404.37 760.72,406.19 C762.39,407.57 762.41,417.43 760.75,418.73 ZM 640.65 215.88 C638.72,217.47 630.81,218.24 628.84,217.03 C627.55,216.23 627.18,214.45 627.18,209.00 L 627.18 202.00 L 633.98 202.00 C641.71,202.00 642.00,202.28 642.00,209.96 C642.00,212.77 641.44,215.22 640.65,215.88 ZM 723.80 418.80 C722.09,420.51 711.08,420.38 710.41,418.64 C710.13,417.89 710.03,414.63 710.20,411.39 L 710.50 405.50 L 716.26 404.64 C723.84,403.50 725.00,404.46 725.00,411.92 C725.00,415.05 724.46,418.14 723.80,418.80 ZM 642.07 283.50 L 641.50 289.50 L 634.74 289.80 L 634.70 289.80 C630.95,289.96 629.01,290.05 628.05,289.12 C627.02,288.13 627.10,285.98 627.27,281.54 L 627.27 281.50 L 627.50 275.50 L 634.63 275.21 C642.89,274.87 642.90,274.89 642.07,283.50 Z" fill="rgb(243,231,212)"/>
<path d="M 206.99 492.02 C206.19,493.31 194.02,493.53 113.58,493.73 C59.75,493.86 20.86,493.58 20.54,493.06 C19.76,491.80 19.71,186.28 20.49,185.02 C20.91,184.34 51.68,184.00 113.95,184.00 C197.06,184.00 206.85,184.16 207.38,185.56 C208.38,188.16 207.99,490.39 206.99,492.02 ZM 205.21 491.19 C206.13,490.27 206.38,187.42 205.47,185.94 C204.67,184.65 25.08,184.71 23.00,186.00 C21.68,186.82 21.47,205.25 21.24,338.60 C21.08,430.39 21.35,490.71 21.91,491.39 C22.99,492.70 203.90,492.50 205.21,491.19 ZM 33.00 481.02 C31.68,480.19 31.50,463.42 31.50,340.00 C31.50,216.58 31.68,199.81 33.00,198.98 C33.93,198.39 65.34,198.12 115.00,198.26 L 195.50 198.50 L 195.77 227.29 C195.94,246.00 195.66,256.76 194.98,258.04 C193.95,259.96 192.51,260.00 130.37,260.00 C70.67,260.00 66.79,260.11 66.39,261.75 C66.16,262.71 65.86,311.92 65.74,371.10 C65.54,460.57 65.27,478.97 64.13,480.35 C62.97,481.74 60.56,482.00 48.63,481.98 C40.86,481.98 33.83,481.54 33.00,481.02 ZM 36.75 480.20 C45.21,480.91 61.96,480.44 62.95,479.45 C63.66,478.74 64.07,443.43 64.25,368.95 L 64.50 259.50 L 128.67 259.00 C163.96,258.73 193.07,258.26 193.36,257.97 C194.35,256.98 194.33,200.93 193.34,199.94 C192.75,199.35 162.56,199.08 112.94,199.24 L 33.50 199.50 L 32.99 479.88 ZM 77.57 480.43 C76.16,479.02 76.00,468.20 76.02,376.18 C76.02,313.24 76.40,272.92 76.98,272.00 C77.80,270.70 85.62,270.46 135.58,270.23 C177.81,270.03 193.61,270.26 194.62,271.10 C196.62,272.76 196.66,332.21 194.66,333.87 C193.74,334.63 180.32,335.06 151.41,335.24 L 109.50 335.50 L 109.00 407.79 C108.57,470.58 108.30,480.20 107.00,481.02 C106.18,481.54 99.57,481.98 92.32,481.98 C81.66,482.00 78.84,481.70 77.57,480.43 ZM 80.50 480.28 C83.68,481.08 102.27,480.77 104.75,479.87 L 107.00 479.05 L 107.00 406.63 C107.00,341.52 107.16,334.15 108.58,333.61 C109.45,333.27 129.03,333.00 152.08,333.00 C191.32,333.00 194.00,332.89 194.04,331.25 C194.13,326.49 194.19,274.33 194.10,273.25 C194.02,272.27 181.70,272.00 136.12,272.00 L 78.23 272.00 L 77.63 274.25 C76.76,277.51 76.89,477.28 77.77,478.63 C78.17,479.26 79.40,480.00 80.50,480.28 ZM 569.80 492.80 C569.07,493.53 565.56,494.00 560.91,494.00 C554.81,494.00 553.09,493.67 552.61,492.42 C552.27,491.55 552.00,467.34 552.00,438.62 C552.00,399.34 552.30,386.10 553.20,385.20 C553.94,384.46 557.57,384.00 562.66,384.00 L 570.92 384.00 L 571.50 366.50 L 624.50 366.50 L 625.08 384.00 L 633.34 384.00 C638.43,384.00 642.06,384.46 642.80,385.20 C644.32,386.72 644.54,487.46 643.02,491.43 C642.10,493.87 641.68,494.00 634.56,494.00 C628.12,494.00 626.92,493.72 626.01,492.02 C625.34,490.78 624.99,480.96 625.04,465.37 C625.10,446.05 624.83,440.51 623.81,439.86 C622.32,438.91 575.00,438.68 572.58,439.61 C571.20,440.14 571.00,443.40 571.00,465.91 C571.00,484.56 570.67,491.93 569.80,492.80 ZM 707.80 308.80 C707.09,309.51 703.65,310.00 699.34,310.00 C693.18,310.00 691.91,309.71 691.04,308.07 C690.36,306.80 690.00,288.04 690.00,254.04 L 690.00 201.95 L 692.57 200.98 C693.98,200.44 698.01,200.00 701.52,200.00 L 707.91 200.00 L 708.46 196.75 C708.76,194.96 709.11,191.02 709.25,188.00 L 709.50 182.50 L 734.00 182.22 C747.47,182.06 759.51,182.18 760.75,182.49 C762.86,183.00 763.00,183.56 763.00,191.42 L 763.00 199.79 L 771.42 200.15 C776.05,200.34 780.21,200.87 780.67,201.33 C781.78,202.44 782.33,300.38 781.26,305.50 L 780.42 309.50 L 773.12 309.80 C768.59,309.98 765.28,309.65 764.41,308.92 C763.26,307.97 763.00,302.92 763.00,281.98 C763.00,259.41 762.80,256.14 761.42,255.61 C759.35,254.82 712.65,254.82 710.58,255.61 C709.20,256.14 709.00,259.40 709.00,281.91 C709.00,300.56 708.67,307.93 707.80,308.80 ZM 293.42 493.39 C291.28,494.22 278.50,494.17 277.67,493.33 C277.30,492.97 277.00,464.44 277.00,429.94 C277.00,373.66 277.16,367.15 278.58,366.61 C279.45,366.27 295.34,366.00 313.88,366.00 C338.77,366.00 347.91,366.31 348.80,367.20 C349.53,367.93 350.00,371.47 350.00,376.20 L 350.00 384.00 L 357.42 384.00 C361.50,384.00 365.55,384.27 366.42,384.61 C367.78,385.13 368.00,387.71 368.00,403.11 L 368.00 421.00 L 350.08 421.00 L 349.50 438.50 L 322.50 439.04 C307.65,439.34 295.39,439.68 295.25,439.79 C295.11,439.91 295.00,451.88 295.00,466.39 C295.00,489.54 294.81,492.86 293.42,493.39 ZM 122.04 480.07 C120.46,477.11 120.61,347.79 122.20,346.20 C123.09,345.31 132.68,345.00 159.18,345.00 L 194.96 345.00 L 195.51 347.25 C195.81,348.49 195.93,362.33 195.78,378.00 L 195.50 406.50 L 174.50 407.00 C162.95,407.27 152.94,407.86 152.25,408.31 C151.29,408.93 151.00,417.26 151.00,444.36 C151.00,470.44 150.69,479.91 149.80,480.80 C148.99,481.61 144.43,482.00 135.84,482.00 C124.24,482.00 122.98,481.82 122.04,480.07 ZM 126.00 480.26 C129.90,480.99 141.10,481.04 145.25,480.36 L 149.00 479.74 L 149.00 445.43 C149.00,425.57 149.41,410.05 149.98,408.57 L 150.95 406.00 L 171.92 406.00 C186.96,406.00 193.09,405.67 193.61,404.82 C194.48,403.41 194.32,347.99 193.44,347.11 C193.11,346.77 177.62,346.37 159.03,346.21 C129.04,345.96 125.04,346.11 123.61,347.53 C122.16,348.98 122.00,355.66 122.02,413.32 C122.02,448.62 122.36,478.02 122.77,478.65 C123.17,479.28 124.62,480.01 126.00,480.26 ZM 486.96 308.07 C485.98,309.90 484.61,310.00 460.02,310.00 C445.78,310.00 433.94,309.66 433.72,309.25 C433.51,308.84 433.38,304.67 433.45,300.00 L 433.57 291.50 L 459.53 291.32 C473.82,291.22 485.95,291.10 486.50,291.07 C487.15,291.02 487.47,275.26 487.41,245.75 L 487.33 200.50 L 460.16 200.28 L 433.00 200.05 L 433.00 292.00 L 425.25 291.98 C420.99,291.98 416.96,291.62 416.29,291.20 C414.42,290.01 414.29,202.08 416.16,200.85 C416.90,200.36 420.88,200.05 425.00,200.15 L 432.50 200.33 L 433.00 191.41 L 433.50 182.50 L 459.38 182.23 C477.63,182.04 485.66,182.30 486.63,183.11 C487.58,183.89 488.00,186.66 488.00,192.12 L 488.00 200.00 L 495.07 200.00 C496.08,200.00 497.00,199.97 497.83,199.94 C500.15,199.86 501.82,199.80 503.02,200.52 C506.08,202.37 506.06,209.31 506.01,233.97 C506.01,237.44 506.00,241.26 506.00,245.46 C506.00,283.58 505.81,289.05 504.43,290.43 C503.28,291.58 500.85,292.00 495.43,292.00 L 488.00 292.00 L 488.00 299.07 C488.00,302.95 487.53,307.00 486.96,308.07 ZM 704.25 308.01 L 707.00 308.00 L 707.00 282.20 C707.00,263.47 707.33,256.07 708.20,255.20 C709.07,254.33 716.68,254.00 736.16,254.00 C761.88,254.00 762.97,254.08 764.00,255.99 C764.68,257.27 765.03,266.74 764.96,282.13 C764.91,295.40 765.23,306.60 765.68,307.00 C767.53,308.67 775.66,308.93 777.86,307.38 L 780.05 305.85 L 779.97 255.37 C779.93,227.60 779.64,204.24 779.34,203.44 C778.69,201.75 766.52,201.35 765.51,202.98 C765.18,203.52 764.79,211.17 764.66,219.98 C764.51,229.80 764.00,236.40 763.33,237.07 C761.79,238.61 710.48,238.65 708.62,237.10 C707.58,236.24 707.21,232.08 707.08,219.73 C706.98,210.80 706.54,203.14 706.10,202.70 C705.66,202.26 702.42,202.03 698.90,202.20 L 692.50 202.50 L 691.82 207.00 C691.45,209.48 691.11,231.88 691.07,256.78 C690.99,309.01 691.08,309.74 697.75,308.64 C699.81,308.30 702.74,308.02 704.25,308.01 ZM 641.35 491.02 C642.24,490.16 642.29,388.28 641.40,386.84 C641.12,386.38 638.22,386.00 634.98,386.00 C630.16,386.00 628.88,386.36 628.04,387.93 C627.45,389.02 627.00,396.42 627.00,404.81 C627.00,415.76 626.66,420.04 625.72,420.82 C623.82,422.40 572.25,422.65 570.68,421.09 C569.91,420.32 569.33,414.10 569.00,403.20 L 568.50 386.50 L 561.25 386.21 L 554.00 385.91 L 553.88 435.96 C553.81,463.48 553.66,486.56 553.56,487.25 C553.01,490.81 555.00,492.00 561.48,492.00 C565.00,492.00 568.18,491.52 568.53,490.94 C568.89,490.36 569.13,479.41 569.06,466.61 C568.98,452.97 569.34,442.23 569.94,440.66 L 570.95 438.00 L 597.85 438.00 C620.54,438.00 624.95,438.23 626.00,439.50 C626.93,440.62 627.20,447.32 627.07,466.01 L 626.90 491.03 L 629.20 491.99 C631.67,493.02 639.95,492.36 641.35,491.02 ZM 504.96 492.07 C503.97,493.93 502.41,494.00 460.02,494.00 C432.87,494.00 415.89,493.63 415.52,493.03 C414.78,491.83 414.83,368.09 415.57,366.88 C415.87,366.40 419.64,366.00 423.95,366.00 C430.17,366.00 431.91,366.33 432.39,367.58 C432.73,368.45 433.00,392.98 433.00,422.08 L 433.00 475.00 L 467.57 475.00 C489.48,475.00 502.84,475.38 504.07,476.04 C505.67,476.90 506.00,478.17 506.00,483.60 C506.00,487.19 505.53,491.00 504.96,492.07 ZM 331.00 255.83 L 330.50 309.50 L 322.45 309.79 C318.03,309.95 314.09,309.76 313.70,309.37 C313.32,308.98 313.00,284.69 313.00,255.39 C313.00,213.87 312.72,201.94 311.75,201.31 C311.06,200.86 303.98,200.46 296.00,200.41 C288.02,200.35 280.49,200.24 279.25,200.16 C277.11,200.01 277.00,199.60 277.00,191.52 C277.00,183.55 277.14,183.00 279.25,182.49 C280.49,182.19 300.85,182.07 324.50,182.22 L 367.50 182.50 L 367.79 191.17 L 368.08 199.83 L 350.62 200.17 C341.02,200.35 332.79,200.87 332.33,201.33 C331.87,201.79 331.27,226.32 331.00,255.83 ZM 287.68 492.01 C293.59,491.99 293.67,491.63 293.72,464.51 C293.74,448.67 294.13,439.47 294.80,438.80 C295.48,438.12 305.14,437.70 321.68,437.62 L 347.50 437.50 L 347.50 430.57 C347.50,423.72 347.47,423.63 344.50,422.82 C342.85,422.37 331.27,422.02 318.76,422.06 C306.25,422.10 295.56,421.85 295.01,421.50 C293.65,420.66 293.67,387.48 295.04,384.93 C296.02,383.10 297.39,383.00 321.93,383.00 C344.58,383.00 347.86,382.80 348.39,381.42 C349.28,379.09 349.10,370.71 348.13,369.17 C347.03,367.44 281.39,367.43 279.31,369.16 C278.26,370.03 278.00,382.20 278.00,431.04 C278.00,432.84 278.00,434.58 278.00,436.28 L 278.00 436.28 C278.00,483.91 278.00,491.88 280.38,492.67 C280.86,492.83 281.43,492.70 282.12,492.54 C282.24,492.51 282.37,492.49 282.50,492.46 C283.60,492.22 285.93,492.02 287.68,492.01 ZM 328.07 307.96 C329.94,306.96 330.00,305.31 330.00,254.09 C330.00,211.49 330.26,201.03 331.32,200.15 C332.14,199.47 339.16,198.94 349.57,198.77 L 366.50 198.50 L 366.81 193.57 C366.98,190.85 366.86,187.59 366.54,186.31 L 365.96 183.98 L 322.23 184.24 L 278.50 184.50 L 278.20 190.33 L 278.20 190.34 C278.02,193.72 277.92,195.78 278.87,197.05 C280.39,199.04 284.57,199.02 295.38,198.95 L 295.39 198.95 C303.70,198.90 311.29,199.16 312.25,199.54 C313.89,200.17 314.00,203.63 314.02,252.36 C314.02,281.49 314.43,305.13 314.93,305.92 C315.68,307.11 317.85,307.73 325.32,308.87 C325.76,308.94 327.00,308.53 328.07,307.96 ZM 571.00 200.00 L 571.00 292.00 L 563.07 292.00 C557.20,292.00 554.74,291.59 553.57,290.43 C552.19,289.05 552.00,283.63 552.00,246.00 C552.00,208.37 552.19,202.95 553.57,201.57 C554.73,200.41 557.19,200.00 563.03,200.00 L 570.92 200.00 L 571.50 182.50 L 597.43 182.23 C614.27,182.06 623.73,182.33 624.40,183.00 C624.97,183.57 625.35,187.62 625.26,192.01 L 625.09 200.00 L 631.98 200.00 C635.77,200.00 640.02,200.44 641.43,200.98 C643.87,201.90 644.00,202.33 644.00,209.28 C644.00,213.64 643.51,217.09 642.80,217.80 C642.09,218.51 638.65,219.00 634.34,219.00 C625.57,219.00 625.00,218.34 625.00,208.17 C625.00,202.75 624.65,201.08 623.42,200.61 C622.55,200.27 610.40,200.00 596.42,200.00 ZM 503.00 490.51 C504.29,488.94 504.58,482.39 503.49,478.97 C502.87,477.02 502.00,476.97 469.12,477.03 C450.56,477.06 434.66,476.81 433.78,476.47 C432.90,476.13 431.92,474.83 431.61,473.57 C431.29,472.31 431.03,448.61 431.03,420.89 C431.02,393.18 431.02,369.92 431.01,369.21 C431.00,368.24 429.16,367.99 423.75,368.21 L 416.50 368.50 L 416.24 429.00 C416.10,462.27 416.20,490.06 416.46,490.75 C416.83,491.72 426.34,492.00 459.35,492.00 C495.75,492.00 501.93,491.79 503.00,490.51 ZM 744.76 457.29 L 744.50 493.50 L 736.45 493.79 C732.03,493.95 728.09,493.76 727.70,493.37 C727.32,492.98 727.00,476.54 727.00,456.83 L 727.00 421.00 L 744.92 421.00 L 745.50 403.50 L 762.50 402.50 L 762.77 385.57 C762.94,375.16 763.47,368.14 764.15,367.32 C764.88,366.45 767.72,366.00 772.59,366.00 C778.82,366.00 780.09,366.29 780.96,367.93 C781.54,369.01 782.00,376.33 782.00,384.50 C782.00,392.67 781.54,399.99 780.96,401.07 C780.07,402.73 778.82,403.00 771.98,403.00 C771.66,403.00 771.36,403.00 771.06,403.00 C767.42,402.99 765.46,402.99 764.37,403.96 C763.01,405.17 763.00,407.89 762.76,414.00 L 762.50 420.50 L 753.76 420.79 L 745.02 421.08 ZM 295.68 420.35 C296.06,420.72 308.32,420.91 322.93,420.77 L 349.50 420.50 L 349.79 404.50 C349.94,395.70 349.82,387.49 349.52,386.25 L 348.96 384.00 L 323.56 384.00 C309.59,384.00 297.45,384.27 296.58,384.61 C295.22,385.13 295.00,387.65 295.00,402.44 C295.00,411.91 295.31,419.97 295.68,420.35 ZM 571.67 420.33 C572.63,421.29 623.78,421.16 624.38,420.20 C624.65,419.75 624.96,411.54 625.07,401.95 L 625.27 384.50 L 571.00 383.89 L 571.00 401.78 C571.00,411.62 571.30,419.97 571.67,420.33 ZM 709.68 236.35 C710.06,236.73 722.10,236.91 736.43,236.77 L 762.50 236.50 L 762.77 218.86 L 763.05 201.22 L 759.27 200.75 C757.20,200.49 745.04,200.22 732.25,200.15 L 709.00 200.02 L 709.00 217.84 C709.00,227.65 709.31,235.97 709.68,236.35 ZM 568.00 288.50 C569.88,286.24 569.72,204.07 567.84,202.88 C565.82,201.60 556.57,201.83 555.20,203.20 C554.30,204.10 554.00,215.10 554.00,246.53 C554.00,269.71 554.30,288.97 554.67,289.33 C556.03,290.70 566.73,290.04 568.00,288.50 ZM 430.63 288.75 C431.11,288.06 431.28,268.51 431.00,245.00 L 430.50 202.50 L 424.09 202.20 C419.64,201.99 417.43,202.29 416.86,203.20 C415.92,204.68 415.68,286.00 416.61,288.42 C417.38,290.42 429.26,290.71 430.63,288.75 ZM 502.98 288.42 C504.03,287.37 504.56,204.72 503.52,203.04 C502.48,201.35 492.38,201.77 490.57,203.57 C489.19,204.95 489.00,210.19 489.00,245.99 C489.00,268.46 489.29,287.60 489.65,288.53 C490.18,289.92 491.33,290.14 496.16,289.79 C499.39,289.56 502.46,288.94 502.98,288.42 ZM 743.05 489.91 C744.08,487.98 744.40,431.23 743.40,426.26 C742.14,419.96 729.85,420.02 728.58,426.34 C727.75,430.48 727.92,490.58 728.76,491.42 C729.12,491.79 732.28,492.00 735.76,491.89 C740.67,491.73 742.31,491.28 743.05,489.91 ZM 726.80 414.03 L 726.50 420.50 L 709.00 421.08 L 708.83 415.29 C708.73,412.11 708.56,408.83 708.44,408.00 C708.31,407.17 708.16,405.71 708.11,404.75 C708.02,403.25 706.94,403.00 700.58,403.00 C696.50,403.00 692.45,402.73 691.58,402.39 C690.23,401.87 690.00,399.39 690.00,385.09 C690.00,373.44 690.36,368.04 691.20,367.20 C691.91,366.49 695.35,366.00 699.66,366.00 C705.82,366.00 707.09,366.29 707.96,367.93 C708.56,369.04 709.00,376.93 709.00,386.43 L 709.00 403.00 L 717.55 403.00 C722.25,403.00 724.69,403.00 725.90,404.22 C727.20,405.54 727.07,408.27 726.81,413.96 ZM 625.18 304.00 L 624.50 309.50 L 598.43 309.77 C584.10,309.91 572.06,309.73 571.68,309.35 C571.31,308.97 571.00,304.94 571.00,300.38 L 571.00 292.09 L 574.25 291.50 C576.04,291.18 588.06,291.05 600.96,291.21 L 624.41 291.50 L 625.13 295.00 C625.53,296.92 625.55,300.98 625.18,304.00 ZM 622.75 307.50 C623.54,307.22 624.00,305.07 624.00,301.61 C624.00,300.99 624.01,300.42 624.02,299.88 C624.05,297.61 624.07,296.08 623.37,295.06 C621.92,292.96 617.42,292.97 603.71,292.99 C602.13,293.00 600.43,293.00 598.59,293.00 C581.11,293.00 574.07,293.33 573.20,294.20 C571.46,295.94 571.63,306.70 573.42,307.70 C574.86,308.51 620.42,308.32 622.75,307.50 ZM 483.43 198.02 C485.79,197.13 486.00,196.56 486.00,191.15 C486.00,187.56 485.51,184.90 484.75,184.37 C484.06,183.89 472.48,183.72 459.00,184.00 L 434.50 184.50 L 434.20 190.39 C434.03,193.63 434.13,196.89 434.41,197.64 C434.83,198.73 439.45,199.00 457.90,199.00 C470.53,199.00 482.02,198.56 483.43,198.02 ZM 484.80 306.80 C485.46,306.14 486.00,303.23 486.00,300.34 C486.00,296.15 485.60,294.86 484.07,294.04 C481.28,292.54 435.34,292.64 434.42,294.13 C433.53,295.56 433.56,305.48 434.45,306.92 C435.44,308.52 483.20,308.40 484.80,306.80 ZM 622.80 197.80 C624.05,196.55 624.45,188.33 623.39,185.58 C622.86,184.20 619.68,184.00 598.00,184.00 C596.48,184.00 595.06,184.00 593.71,184.00 C578.41,183.98 573.85,183.98 572.52,186.05 C571.95,186.93 571.97,188.18 571.99,189.97 C572.00,190.34 572.00,190.73 572.00,191.15 C572.00,191.42 572.00,191.69 572.00,191.95 C571.99,194.15 571.98,195.66 572.68,196.71 C574.22,199.01 579.21,199.01 595.19,199.00 C596.04,199.00 596.92,199.00 597.84,199.00 C614.99,199.00 621.93,198.67 622.80,197.80 ZM 760.91 197.61 C761.62,196.75 761.98,193.82 761.80,190.33 L 761.50 184.50 L 710.50 184.50 L 710.20 190.33 C710.03,193.65 710.38,196.76 711.02,197.53 C712.73,199.58 759.21,199.66 760.91,197.61 ZM 623.50 368.50 L 572.50 368.50 L 572.20 374.39 C572.03,377.63 572.13,380.90 572.42,381.66 C572.86,382.79 577.48,382.99 598.23,382.77 L 623.50 382.50 ZM 365.42 419.39 C366.77,418.88 367.00,416.54 366.98,403.64 C366.98,395.31 366.60,387.92 366.15,387.20 C365.57,386.29 363.26,385.99 358.41,386.20 L 351.50 386.50 L 351.22 401.65 C350.90,419.35 351.18,420.00 358.99,420.00 C361.66,420.00 364.55,419.73 365.42,419.39 ZM 705.90 400.62 C706.69,399.67 706.97,394.35 706.78,383.87 L 706.50 368.50 L 700.08 367.99 L 700.05 367.99 C696.38,367.70 694.17,367.52 692.86,368.52 C690.86,370.05 690.95,374.32 691.18,385.11 L 691.18 385.18 C691.44,397.08 691.80,400.27 693.00,401.02 C695.34,402.50 704.58,402.21 705.90,400.62 ZM 779.50 368.50 L 765.50 368.50 L 765.21 383.00 C765.20,383.72 765.18,384.42 765.17,385.09 C764.95,396.01 764.87,399.95 766.69,401.28 C767.72,402.03 769.36,401.96 771.91,401.84 C772.19,401.82 772.48,401.81 772.78,401.80 L 779.50 401.50 ZM 641.43 291.02 C638.87,292.00 630.05,292.17 626.75,291.31 C625.29,290.93 625.00,289.68 625.02,283.68 C625.02,279.73 625.36,276.00 625.77,275.39 C626.76,273.89 641.59,272.99 642.95,274.35 C643.53,274.93 644.00,278.70 644.00,282.72 C644.00,289.67 643.87,290.10 641.43,291.02 ZM 163.00 481.02 C161.72,480.21 161.49,475.68 161.44,450.80 C161.43,447.91 161.42,445.27 161.40,442.85 C161.32,429.01 161.28,422.66 163.50,419.78 L 163.23 449.00 C163.02,473.16 163.22,478.68 164.35,479.51 C165.89,480.64 192.43,480.90 193.53,479.80 C194.48,478.86 194.70,423.42 193.77,420.91 C193.09,419.06 192.18,418.96 178.27,419.22 L 163.73 419.50 C163.90,419.31 164.07,419.14 164.26,418.99 C166.28,417.34 169.69,417.39 175.39,417.46 C176.72,417.48 178.19,417.50 179.79,417.50 C191.39,417.50 194.25,417.78 195.02,419.00 C195.56,419.86 195.98,433.01 195.98,449.68 C196.00,474.88 195.79,479.07 194.43,480.43 C193.15,481.71 190.25,482.00 178.68,481.98 C170.88,481.98 163.82,481.54 163.00,481.02 ZM 760.75 418.73 C762.41,417.43 762.39,407.57 760.72,406.19 C758.54,404.37 749.72,403.69 747.77,405.18 C746.30,406.30 746.15,407.46 746.77,413.00 L 747.50 419.50 L 751.50 420.03 C755.95,420.61 758.87,420.20 760.75,418.73 ZM 640.65 215.88 C641.44,215.22 642.00,212.77 642.00,209.96 C642.00,202.28 641.71,202.00 633.98,202.00 L 627.18 202.00 L 627.18 209.00 C627.18,214.45 627.55,216.23 628.84,217.03 C630.81,218.24 638.72,217.47 640.65,215.88 ZM 723.80 418.80 C724.46,418.14 725.00,415.05 725.00,411.92 C725.00,404.46 723.84,403.50 716.26,404.64 L 710.50 405.50 L 710.20 411.39 C710.03,414.63 710.13,417.89 710.41,418.64 C711.08,420.38 722.09,420.51 723.80,418.80 ZM 642.07 283.50 C642.90,274.89 642.89,274.87 634.63,275.21 L 627.50 275.50 L 627.27 281.50 L 627.27 281.54 C627.10,285.98 627.02,288.13 628.05,289.12 C629.01,290.05 630.95,289.96 634.70,289.80 L 634.74 289.80 L 641.50 289.50 Z" fill="rgb(245,238,224)"/>
<path d="M 207.67 493.86 C206.09,495.17 21.74,495.99 19.43,494.70 C18.20,494.01 18.00,472.27 18.00,339.51 L 18.00 185.11 L 20.22 183.56 C22.19,182.18 32.73,182.00 113.79,182.00 C174.84,182.00 205.77,182.34 207.07,183.04 C208.97,184.05 209.00,186.84 209.00,338.41 C209.00,465.50 208.77,492.95 207.67,493.86 ZM 206.99 492.02 C207.99,490.39 208.38,188.16 207.38,185.56 C206.85,184.16 197.06,184.00 113.95,184.00 C51.68,184.00 20.91,184.34 20.49,185.02 C19.71,186.28 19.76,491.80 20.54,493.06 C20.86,493.58 59.75,493.86 113.58,493.73 C194.02,493.53 206.19,493.31 206.99,492.02 ZM 36.75 480.20 L 32.99 479.88 L 33.50 199.50 L 112.94 199.24 C162.56,199.08 192.75,199.35 193.34,199.94 C194.33,200.93 194.35,256.98 193.36,257.97 C193.07,258.26 163.96,258.73 128.67,259.00 L 64.50 259.50 L 64.25 368.95 C64.07,443.43 63.66,478.74 62.95,479.45 C61.96,480.44 45.21,480.91 36.75,480.20 ZM 37.25 478.29 C42.60,479.32 60.64,478.96 61.80,477.80 C62.72,476.88 63.00,451.10 63.00,367.84 C63.00,261.33 63.04,259.05 64.93,258.04 C66.21,257.35 88.00,257.00 128.73,257.00 C175.52,257.00 190.89,256.71 191.80,255.80 C193.19,254.41 193.53,204.39 192.17,202.24 C191.54,201.25 175.03,201.04 112.94,201.24 C38.96,201.49 34.50,201.60 34.58,203.25 C34.63,204.21 34.74,266.39 34.83,341.43 L 35.00 477.86 ZM 80.50 480.28 C79.40,480.00 78.17,479.26 77.77,478.63 C76.89,477.28 76.76,277.51 77.63,274.25 L 78.23 272.00 L 136.12 272.00 C181.70,272.00 194.02,272.27 194.10,273.25 C194.19,274.33 194.13,326.49 194.04,331.25 C194.00,332.89 191.32,333.00 152.08,333.00 C129.03,333.00 109.45,333.27 108.58,333.61 C107.16,334.15 107.00,341.52 107.00,406.63 L 107.00 479.05 L 104.75 479.87 C102.27,480.77 83.68,481.08 80.50,480.28 ZM 482.84 311.10 C472.99,312.50 434.18,311.58 432.50,309.91 C431.95,309.36 431.27,305.44 431.00,301.20 L 430.50 293.50 L 422.76 293.21 C416.57,292.97 414.84,292.56 414.07,291.14 C412.56,288.30 412.44,202.38 413.95,200.56 C414.79,199.55 417.59,198.99 422.84,198.79 L 430.50 198.50 L 431.04 190.19 C431.41,184.46 432.03,181.59 433.04,180.95 C433.84,180.45 446.00,180.02 460.06,180.02 C480.10,180.00 486.02,180.29 487.49,181.37 C488.90,182.40 489.49,184.51 489.93,190.12 L 490.50 197.50 L 497.77 198.07 C501.76,198.38 505.53,199.13 506.15,199.75 C507.65,201.25 507.48,290.92 505.97,292.43 C505.40,293.00 501.58,293.63 497.47,293.84 L 490.00 294.22 L 489.98 300.86 C489.98,304.51 489.57,308.14 489.07,308.92 C488.58,309.70 485.77,310.68 482.84,311.10 ZM 79.47 477.78 C79.84,478.75 82.97,478.99 92.23,478.78 L 104.50 478.50 L 104.76 406.04 C104.90,366.19 105.41,333.19 105.89,332.71 C106.37,332.23 125.72,331.89 148.89,331.96 L 191.02 332.07 L 192.01 329.47 C193.19,326.37 193.33,276.08 192.17,274.24 C191.54,273.25 179.52,273.04 135.44,273.24 L 79.50 273.50 L 79.24 375.00 C79.10,430.83 79.20,477.08 79.47,477.78 ZM 709.20 310.20 C708.68,310.72 704.94,311.38 700.88,311.69 C694.62,312.16 693.16,311.96 691.23,310.37 L 688.97 308.50 L 688.93 254.60 C688.91,218.67 689.24,200.36 689.94,199.66 C690.51,199.09 694.02,198.66 697.74,198.70 C701.46,198.75 705.06,198.33 705.75,197.77 C706.54,197.12 707.00,194.08 707.00,189.41 C707.00,183.18 707.29,181.91 708.93,181.04 C711.54,179.64 760.46,179.64 763.07,181.04 C764.71,181.91 765.00,183.18 765.00,189.34 C765.00,193.65 765.49,197.09 766.20,197.80 C766.89,198.49 770.22,199.00 774.08,199.00 C778.57,199.00 781.13,199.46 781.91,200.39 C782.76,201.41 783.06,216.19 783.04,255.14 L 783.00 308.50 L 780.75 310.37 C778.84,311.96 777.38,312.16 771.12,311.69 C767.06,311.38 763.28,310.68 762.71,310.11 C762.06,309.46 761.77,300.16 761.91,284.48 C762.07,266.68 761.80,259.46 760.94,258.43 C759.22,256.35 712.81,256.31 711.09,258.39 C710.29,259.36 709.97,267.21 710.04,284.52 C710.09,298.60 709.73,309.67 709.20,310.20 ZM 571.02 494.48 C569.70,496.06 553.57,496.17 552.00,494.60 C551.36,493.96 551.00,474.36 551.00,439.42 C551.00,396.30 551.26,385.03 552.29,384.17 C553.01,383.58 556.94,382.96 561.04,382.80 L 568.50 382.50 L 568.80 374.55 C568.96,370.17 569.58,366.01 570.17,365.30 C571.00,364.30 577.10,364.00 596.90,364.00 C597.73,364.00 598.53,364.00 599.32,364.00 C618.10,363.99 624.15,363.99 626.09,366.82 C627.01,368.16 627.01,370.14 627.00,373.07 C627.00,373.32 627.00,373.59 627.00,373.86 C627.00,377.77 627.50,381.10 628.20,381.80 C628.86,382.46 632.04,383.00 635.27,383.00 C636.18,383.00 637.01,382.96 637.76,382.92 C639.52,382.83 640.86,382.77 641.88,383.31 C645.07,385.01 645.06,392.72 645.01,424.65 C645.01,428.96 645.00,433.72 645.00,438.96 C645.00,484.29 644.77,493.08 643.57,494.28 C641.73,496.13 627.20,495.45 625.06,493.42 C623.87,492.29 623.67,487.90 623.88,468.28 C624.03,455.20 623.84,443.71 623.46,442.75 C622.84,441.15 620.70,441.00 598.43,441.00 C575.24,441.00 574.02,441.09 573.02,442.96 C572.36,444.19 571.99,453.96 572.04,469.05 C572.08,485.09 571.74,493.61 571.02,494.48 ZM 569.80 492.80 C570.67,491.93 571.00,484.56 571.00,465.91 C571.00,443.40 571.20,440.14 572.58,439.61 C575.00,438.68 622.32,438.91 623.81,439.86 C624.83,440.51 625.10,446.05 625.04,465.37 C624.99,480.96 625.34,490.78 626.01,492.02 C626.92,493.72 628.12,494.00 634.56,494.00 C641.68,494.00 642.10,493.87 643.02,491.43 C644.54,487.46 644.32,386.72 642.80,385.20 C642.06,384.46 638.43,384.00 633.34,384.00 L 625.08 384.00 L 624.50 366.50 L 571.50 366.50 L 570.92 384.00 L 562.66 384.00 C557.57,384.00 553.94,384.46 553.20,385.20 C552.30,386.10 552.00,399.34 552.00,438.62 C552.00,467.34 552.27,491.55 552.61,492.42 C553.09,493.67 554.81,494.00 560.91,494.00 C565.56,494.00 569.07,493.53 569.80,492.80 ZM 707.80 308.80 C708.67,307.93 709.00,300.56 709.00,281.91 C709.00,259.40 709.20,256.14 710.58,255.61 C712.65,254.82 759.35,254.82 761.42,255.61 C762.80,256.14 763.00,259.41 763.00,281.98 C763.00,302.92 763.26,307.97 764.41,308.92 C765.28,309.65 768.59,309.98 773.12,309.80 L 780.42 309.50 L 781.26 305.50 C782.33,300.38 781.78,202.44 780.67,201.33 C780.21,200.87 776.05,200.34 771.42,200.15 L 763.00 199.79 L 763.00 191.42 C763.00,183.56 762.86,183.00 760.75,182.49 C759.51,182.18 747.47,182.06 734.00,182.22 L 709.50 182.50 L 709.25 188.00 C709.11,191.02 708.76,194.96 708.46,196.75 L 707.91 200.00 L 701.52 200.00 C698.01,200.00 693.98,200.44 692.57,200.98 L 690.00 201.95 L 690.00 254.04 C690.00,288.04 690.36,306.80 691.04,308.07 C691.91,309.71 693.18,310.00 699.34,310.00 C703.65,310.00 707.09,309.51 707.80,308.80 ZM 126.00 480.26 C124.62,480.01 123.17,479.28 122.77,478.65 C122.36,478.02 122.02,448.62 122.02,413.32 C122.00,355.66 122.16,348.98 123.61,347.53 C125.04,346.11 129.04,345.96 159.03,346.21 C177.62,346.37 193.11,346.77 193.44,347.11 C194.32,347.99 194.48,403.41 193.61,404.82 C193.09,405.67 186.96,406.00 171.92,406.00 L 150.95 406.00 L 149.98 408.57 C149.41,410.05 149.00,425.57 149.00,445.43 L 149.00 479.74 L 145.25 480.36 C141.10,481.04 129.90,480.99 126.00,480.26 ZM 125.20 477.80 C127.05,479.65 145.41,479.42 146.98,477.52 C147.91,476.41 148.12,467.75 147.86,441.67 C147.57,413.68 147.76,406.99 148.88,405.65 C150.06,404.22 152.90,404.00 170.42,404.00 C184.78,404.00 190.95,403.65 191.80,402.80 C192.67,401.93 193.00,394.54 193.00,375.84 C193.00,351.39 192.90,350.02 191.07,349.04 C188.16,347.48 126.77,347.63 125.20,349.20 C123.47,350.93 123.47,476.07 125.20,477.80 ZM 624.80 310.29 C622.87,311.92 620.40,312.07 598.46,311.95 C582.14,311.85 573.48,311.42 571.87,310.63 C569.79,309.60 569.44,308.58 569.00,302.31 C568.72,298.38 568.24,294.90 567.92,294.58 C567.60,294.26 563.87,293.71 559.63,293.35 C555.40,292.99 551.75,292.40 551.52,292.03 C551.29,291.66 551.03,271.21 550.94,246.58 C550.79,206.93 550.95,201.62 552.36,200.22 C553.37,199.20 556.54,198.43 561.22,198.07 L 568.50 197.50 L 568.78 190.00 C568.99,184.42 569.49,182.18 570.72,181.25 C571.95,180.33 579.00,180.00 597.74,180.00 L 623.09 180.00 L 625.68 182.59 C628.03,184.93 628.21,185.71 627.73,190.99 C627.41,194.57 627.63,197.23 628.30,197.90 C628.91,198.51 632.70,199.00 636.72,199.00 C643.67,199.00 644.10,199.13 645.02,201.57 C646.28,204.86 646.29,215.59 645.04,217.92 C643.78,220.28 630.57,221.67 626.62,219.87 C624.35,218.84 624.00,218.06 623.99,214.09 C623.98,211.57 623.70,207.80 623.36,205.73 L 622.73 201.97 L 598.13 202.23 L 573.52 202.50 L 572.88 205.50 C571.76,210.74 571.90,285.95 573.04,288.07 C574.01,289.90 575.37,290.00 598.06,290.00 L 622.05 290.00 L 622.97 287.58 C623.48,286.25 623.84,282.90 623.78,280.14 C623.60,272.56 624.61,271.88 635.40,272.21 L 644.50 272.50 L 645.05 281.00 C645.80,292.63 645.64,292.85 636.24,293.21 L 628.50 293.50 L 627.72 301.00 C627.11,306.81 626.46,308.90 624.80,310.29 ZM 486.96 308.07 C487.53,307.00 488.00,302.95 488.00,299.07 L 488.00 292.00 L 495.43 292.00 C500.85,292.00 503.28,291.58 504.43,290.43 C505.81,289.05 506.00,283.58 506.00,245.46 C506.00,241.26 506.01,237.44 506.01,233.97 C506.06,209.31 506.08,202.37 503.02,200.52 C501.82,199.80 500.15,199.86 497.83,199.94 C497.00,199.97 496.08,200.00 495.07,200.00 L 488.00 200.00 L 488.00 192.12 C488.00,186.66 487.58,183.89 486.63,183.11 C485.66,182.30 477.63,182.04 459.38,182.23 L 433.50 182.50 L 433.00 191.41 L 432.50 200.33 L 425.00 200.15 C420.88,200.05 416.90,200.36 416.16,200.85 C414.29,202.08 414.42,290.01 416.29,291.20 C416.96,291.62 420.99,291.98 425.25,291.98 L 433.00 292.00 L 433.00 200.05 L 460.16 200.28 L 487.33 200.50 L 487.41 245.75 C487.47,275.26 487.15,291.02 486.50,291.07 C485.95,291.10 473.82,291.22 459.53,291.32 L 433.57 291.50 L 433.45 300.00 C433.38,304.67 433.51,308.84 433.72,309.25 C433.94,309.66 445.78,310.00 460.02,310.00 C484.61,310.00 485.98,309.90 486.96,308.07 ZM 435.54 289.06 C436.45,290.53 483.32,290.28 484.80,288.80 C485.69,287.91 486.00,277.10 486.00,246.37 C486.00,210.22 485.81,204.95 484.43,203.57 C483.09,202.23 479.35,202.00 458.93,202.00 C443.65,202.00 435.00,202.36 434.99,203.00 C434.72,226.50 435.12,288.38 435.54,289.06 ZM 331.80 310.80 C330.17,312.43 314.29,311.62 312.48,309.82 C312.15,309.48 311.79,285.79 311.69,257.16 C311.54,215.93 311.23,204.83 310.20,203.80 C309.25,202.85 304.71,202.49 293.33,202.45 C292.90,202.45 292.49,202.44 292.09,202.44 C282.35,202.41 278.16,202.40 276.35,200.32 C274.99,198.75 275.00,195.99 275.00,191.16 C275.00,190.89 275.00,190.62 275.00,190.34 C275.00,183.19 275.26,181.93 276.93,181.04 C278.18,180.37 294.29,180.00 322.36,180.00 C360.57,180.00 366.05,180.19 367.43,181.57 C369.39,183.53 369.69,198.91 367.80,200.80 C366.97,201.63 361.80,202.00 351.00,202.00 C340.20,202.00 335.03,202.37 334.20,203.20 C333.30,204.10 333.00,217.42 333.00,257.00 C333.00,296.58 332.70,309.90 331.80,310.80 ZM 506.47 493.93 C504.84,495.56 501.97,495.63 456.50,495.05 L 413.50 494.50 L 413.23 431.00 L 412.96 367.50 L 415.09 365.75 C416.65,364.47 419.00,364.00 423.86,364.02 C427.51,364.02 431.00,364.36 431.60,364.77 C434.94,366.99 435.10,369.71 434.94,421.24 L 434.79 472.43 L 437.65 473.20 C439.22,473.63 455.06,473.94 472.86,473.90 C495.80,473.85 505.55,474.15 506.36,474.96 C507.80,476.40 507.89,492.51 506.47,493.93 ZM 744.67 494.50 C742.29,496.24 728.92,496.39 726.61,494.71 C726.37,494.53 726.15,494.37 725.96,494.19 C724.64,492.92 724.72,490.19 725.44,465.35 L 725.48 464.00 C725.84,451.62 725.77,437.45 725.32,432.50 L 724.50 423.50 L 717.04 423.20 C712.94,423.04 709.06,422.46 708.41,421.92 C707.75,421.38 707.05,417.81 706.83,413.99 C706.61,410.16 705.95,406.55 705.35,405.95 C704.75,405.35 701.16,404.62 697.38,404.32 C693.59,404.03 690.09,403.40 689.58,402.93 C688.42,401.83 688.83,366.82 690.02,365.60 C691.22,364.37 706.09,363.99 708.25,365.14 C709.80,365.96 710.00,367.83 710.00,381.60 C710.00,390.39 710.45,397.97 711.04,399.07 C711.90,400.69 713.17,401.00 718.91,401.00 C727.27,401.00 728.46,402.09 728.61,409.90 C728.62,410.60 728.63,411.25 728.64,411.85 C728.70,415.74 728.72,417.53 729.63,418.34 C730.40,419.04 731.80,419.03 734.39,419.01 C734.86,419.00 735.37,419.00 735.92,419.00 C740.54,419.00 742.98,418.59 743.29,417.75 C743.53,417.06 743.51,414.15 743.23,411.28 C742.86,407.44 743.16,405.40 744.39,403.53 C745.90,401.22 746.66,401.00 753.05,401.00 C759.74,401.00 760.09,400.88 761.08,398.29 C761.65,396.78 762.02,389.22 761.91,381.31 C761.78,371.83 762.10,366.59 762.86,365.67 C764.31,363.92 780.53,363.73 781.96,365.46 C783.15,366.88 783.49,401.93 782.33,403.02 C781.88,403.45 778.36,404.08 774.53,404.42 C770.70,404.76 767.16,405.44 766.67,405.93 C766.19,406.41 765.43,410.06 765.00,414.03 C764.53,418.26 763.64,421.60 762.85,422.10 C762.11,422.56 758.43,422.91 754.67,422.88 C750.92,422.84 747.55,423.12 747.17,423.49 C746.80,423.86 746.49,439.70 746.49,458.67 C746.48,490.76 746.35,493.27 744.67,494.50 ZM 504.96 492.07 C505.53,491.00 506.00,487.19 506.00,483.60 C506.00,478.17 505.67,476.90 504.07,476.04 C502.84,475.38 489.48,475.00 467.57,475.00 L 433.00 475.00 L 433.00 422.08 C433.00,392.98 432.73,368.45 432.39,367.58 C431.91,366.33 430.17,366.00 423.95,366.00 C419.64,366.00 415.87,366.40 415.57,366.88 C414.83,368.09 414.78,491.83 415.52,493.03 C415.89,493.63 432.87,494.00 460.02,494.00 C502.41,494.00 503.97,493.93 504.96,492.07 ZM 331.00 255.83 C331.27,226.32 331.87,201.79 332.33,201.33 C332.79,200.87 341.02,200.35 350.62,200.17 L 368.08 199.83 L 367.79 191.17 L 367.50 182.50 L 324.50 182.22 C300.85,182.07 280.49,182.19 279.25,182.49 C277.14,183.00 277.00,183.55 277.00,191.52 C277.00,199.60 277.11,200.01 279.25,200.16 C280.49,200.24 288.02,200.35 296.00,200.41 C303.98,200.46 311.06,200.86 311.75,201.31 C312.72,201.94 313.00,213.87 313.00,255.39 C313.00,284.69 313.32,308.98 313.70,309.37 C314.09,309.76 318.03,309.95 322.45,309.79 L 330.50 309.50 ZM 571.00 200.00 L 596.42 200.00 C610.40,200.00 622.55,200.27 623.42,200.61 C624.65,201.08 625.00,202.75 625.00,208.17 C625.00,218.34 625.57,219.00 634.34,219.00 C638.65,219.00 642.09,218.51 642.80,217.80 C643.51,217.09 644.00,213.64 644.00,209.28 C644.00,202.33 643.87,201.90 641.43,200.98 C640.02,200.44 635.77,200.00 631.98,200.00 L 625.09 200.00 L 625.26 192.01 C625.35,187.62 624.97,183.57 624.40,183.00 C623.73,182.33 614.27,182.06 597.43,182.23 L 571.50 182.50 L 570.92 200.00 L 563.03 200.00 C557.19,200.00 554.73,200.41 553.57,201.57 C552.19,202.95 552.00,208.37 552.00,246.00 C552.00,283.63 552.19,289.05 553.57,290.43 C554.74,291.59 557.20,292.00 563.07,292.00 L 571.00 292.00 ZM 744.76 457.29 L 745.02 421.08 L 753.76 420.79 L 762.50 420.50 L 762.76 414.00 C763.00,407.89 763.01,405.17 764.37,403.96 C765.46,402.99 767.42,402.99 771.06,403.00 C771.36,403.00 771.66,403.00 771.98,403.00 C778.82,403.00 780.07,402.73 780.96,401.07 C781.54,399.99 782.00,392.67 782.00,384.50 C782.00,376.33 781.54,369.01 780.96,367.93 C780.09,366.29 778.82,366.00 772.59,366.00 C767.72,366.00 764.88,366.45 764.15,367.32 C763.47,368.14 762.94,375.16 762.77,385.57 L 762.50 402.50 L 745.50 403.50 L 744.92 421.00 L 727.00 421.00 L 727.00 456.83 C727.00,476.54 727.32,492.98 727.70,493.37 C728.09,493.76 732.03,493.95 736.45,493.79 L 744.50 493.50 ZM 295.68 420.35 C295.31,419.97 295.00,411.91 295.00,402.44 C295.00,387.65 295.22,385.13 296.58,384.61 C297.45,384.27 309.59,384.00 323.56,384.00 L 348.96 384.00 L 349.52 386.25 C349.82,387.49 349.94,395.70 349.79,404.50 L 349.50 420.50 L 322.93 420.77 C308.32,420.91 296.06,420.72 295.68,420.35 ZM 571.67 420.33 C571.30,419.97 571.00,411.62 571.00,401.78 L 571.00 383.89 L 625.27 384.50 L 625.07 401.95 C624.96,411.54 624.65,419.75 624.38,420.20 C623.78,421.16 572.63,421.29 571.67,420.33 ZM 709.68 236.35 C709.31,235.97 709.00,227.65 709.00,217.84 L 709.00 200.02 L 732.25 200.15 C745.04,200.22 757.20,200.49 759.27,200.75 L 763.05 201.22 L 762.77 218.86 L 762.50 236.50 L 736.43 236.77 C722.10,236.91 710.06,236.73 709.68,236.35 ZM 163.23 449.00 L 163.50 419.78 C163.57,419.68 163.65,419.59 163.73,419.50 L 178.27 419.22 C192.18,418.96 193.09,419.06 193.77,420.91 C194.70,423.42 194.48,478.86 193.53,479.80 C192.43,480.90 165.89,480.64 164.35,479.51 C163.22,478.68 163.02,473.16 163.23,449.00 ZM 717.20 235.33 C727.51,236.19 759.15,235.25 760.35,234.05 C761.11,233.29 761.50,227.99 761.50,218.41 C761.50,206.62 761.22,203.75 760.00,202.98 C757.69,201.52 712.68,201.72 711.20,203.20 C709.73,204.67 709.53,228.63 710.95,232.38 C711.77,234.53 712.67,234.96 717.20,235.33 ZM 572.82 418.28 C574.21,419.96 622.11,419.38 623.28,417.67 C624.29,416.17 623.77,388.91 622.69,387.25 C622.08,386.31 616.01,386.00 598.00,386.00 C579.99,386.00 573.92,386.31 573.31,387.25 C572.07,389.16 571.64,416.86 572.82,418.28 ZM 299.08 418.83 C302.16,419.98 345.18,419.22 346.40,418.00 C347.10,417.30 347.50,411.41 347.50,401.70 L 347.50 386.50 L 322.57 386.23 C304.34,386.04 297.45,386.28 296.92,387.14 C295.98,388.64 295.71,414.09 296.60,416.41 C296.97,417.38 298.09,418.47 299.08,418.83 ZM 165.44 478.11 C165.69,478.35 171.87,478.54 179.19,478.53 L 192.50 478.50 L 192.77 452.36 C192.92,436.80 192.63,425.16 192.04,423.61 L 191.05 421.00 L 165.00 421.00 L 165.00 449.33 C165.00,464.92 165.20,477.87 165.44,478.11 ZM 726.80 414.03 L 726.81 413.96 C727.07,408.27 727.20,405.54 725.90,404.22 C724.69,403.00 722.25,403.00 717.55,403.00 L 709.00 403.00 L 709.00 386.43 C709.00,376.93 708.56,369.04 707.96,367.93 C707.09,366.29 705.82,366.00 699.66,366.00 C695.35,366.00 691.91,366.49 691.20,367.20 C690.36,368.04 690.00,373.44 690.00,385.09 C690.00,399.39 690.23,401.87 691.58,402.39 C692.45,402.73 696.50,403.00 700.58,403.00 C706.94,403.00 708.02,403.25 708.11,404.75 C708.16,405.71 708.31,407.17 708.44,408.00 C708.56,408.83 708.73,412.11 708.83,415.29 L 709.00 421.08 L 726.50 420.50 ZM 625.18 304.00 C625.55,300.98 625.53,296.92 625.13,295.00 L 624.41 291.50 L 600.96 291.21 C588.06,291.05 576.04,291.18 574.25,291.50 L 571.00 292.09 L 571.00 300.38 C571.00,304.94 571.31,308.97 571.68,309.35 C572.06,309.73 584.10,309.91 598.43,309.77 L 624.50 309.50 ZM 293.42 493.39 C294.81,492.86 295.00,489.54 295.00,466.39 C295.00,451.88 295.11,439.91 295.25,439.79 C295.39,439.68 307.65,439.34 322.50,439.04 L 349.50 438.50 L 350.08 421.00 L 367.55 421.00 C367.32,421.36 367.06,421.65 366.75,421.89 C365.35,423.00 363.07,423.00 359.35,423.00 L 358.93 423.00 C353.03,423.00 351.99,423.26 351.91,424.75 C351.41,434.34 350.85,438.55 349.96,439.44 C349.30,440.10 339.50,440.69 324.00,441.00 C305.44,441.37 298.76,441.83 297.80,442.80 C296.82,443.78 296.45,449.66 296.30,466.30 C296.20,478.51 296.08,489.67 296.05,491.09 C296.02,492.86 295.20,494.04 293.45,494.84 C292.05,495.48 290.59,495.91 290.20,495.81 C289.82,495.71 286.82,495.46 283.53,495.25 C280.25,495.05 276.99,494.41 276.28,493.82 C275.26,492.97 275.00,479.89 275.00,430.00 C275.00,372.83 275.15,367.12 276.65,365.87 C277.98,364.78 285.14,364.47 312.36,364.35 C331.08,364.27 347.44,364.60 348.70,365.08 C350.79,365.87 351.00,366.57 351.00,372.89 L 351.00 372.93 C351.00,378.27 351.00,380.78 352.25,381.96 C353.36,383.00 355.44,383.00 359.37,383.00 L 359.41 383.00 C363.67,383.00 367.09,383.49 367.80,384.20 C368.64,385.04 369.00,390.56 369.00,402.63 L 369.00 403.49 C369.00,412.66 369.00,417.52 368.00,420.10 L 368.00 403.11 C368.00,387.71 367.78,385.13 366.42,384.61 C365.55,384.27 361.50,384.00 357.42,384.00 L 350.00 384.00 L 350.00 376.20 C350.00,371.47 349.53,367.93 348.80,367.20 C347.91,366.31 338.77,366.00 313.88,366.00 C295.34,366.00 279.45,366.27 278.58,366.61 C277.16,367.15 277.00,373.66 277.00,429.94 C277.00,464.44 277.30,492.97 277.67,493.33 C278.50,494.17 291.28,494.22 293.42,493.39 ZM 641.43 291.02 C643.87,290.10 644.00,289.67 644.00,282.72 C644.00,278.70 643.53,274.93 642.95,274.35 C641.59,272.99 626.76,273.89 625.77,275.39 C625.36,276.00 625.02,279.73 625.02,283.68 C625.00,289.68 625.29,290.93 626.75,291.31 C630.05,292.17 638.87,292.00 641.43,291.02 Z" fill="rgb(251,248,242)"/>
<path d="M 0.00 334.00 L 0.00 0.00 L 439.00 0.00 L 878.00 0.00 L 878.00 334.00 L 878.00 668.00 L 439.00 668.00 L 0.00 668.00 L 0.00 334.00 ZM 207.67 493.86 C208.77,492.95 209.00,465.50 209.00,338.41 C209.00,186.84 208.97,184.05 207.07,183.04 C205.77,182.34 174.84,182.00 113.79,182.00 C32.73,182.00 22.19,182.18 20.22,183.56 L 18.00 185.11 L 18.00 339.51 C18.00,472.27 18.20,494.01 19.43,494.70 C21.74,495.99 206.09,495.17 207.67,493.86 ZM 293.45 494.84 C295.20,494.04 296.02,492.86 296.05,491.09 C296.08,489.67 296.20,478.51 296.30,466.30 C296.45,449.66 296.82,443.78 297.80,442.80 C298.76,441.83 305.44,441.37 324.00,441.00 C339.50,440.69 349.30,440.10 349.96,439.44 C350.85,438.55 351.41,434.34 351.91,424.75 C351.99,423.26 353.03,423.00 358.93,423.00 C369.15,423.00 369.00,423.29 369.00,402.63 C369.00,390.56 368.64,385.04 367.80,384.20 C367.09,383.49 363.67,383.00 359.41,383.00 C350.99,383.00 351.00,383.01 351.00,372.89 C351.00,366.57 350.79,365.87 348.70,365.08 C347.44,364.60 331.08,364.27 312.36,364.35 C285.14,364.47 277.98,364.78 276.65,365.87 C275.15,367.12 275.00,372.83 275.00,430.00 C275.00,479.89 275.26,492.97 276.28,493.82 C276.99,494.41 280.25,495.05 283.53,495.25 C286.82,495.46 289.82,495.71 290.20,495.81 C290.59,495.91 292.05,495.48 293.45,494.84 ZM 506.47 493.93 C507.89,492.51 507.80,476.40 506.36,474.96 C505.55,474.15 495.80,473.85 472.86,473.90 C455.06,473.94 439.22,473.63 437.65,473.20 L 434.79 472.43 L 434.94 421.24 C435.10,369.71 434.94,366.99 431.60,364.77 C431.00,364.36 427.51,364.02 423.86,364.02 C419.00,364.00 416.65,364.47 415.09,365.75 L 412.96 367.50 L 413.23 431.00 L 413.50 494.50 L 456.50 495.05 C501.97,495.63 504.84,495.56 506.47,493.93 ZM 571.02 494.48 C571.74,493.61 572.08,485.09 572.04,469.05 C571.99,453.96 572.36,444.19 573.02,442.96 C574.02,441.09 575.24,441.00 598.43,441.00 C620.70,441.00 622.84,441.15 623.46,442.75 C623.84,443.71 624.03,455.20 623.88,468.28 C623.67,487.90 623.87,492.29 625.06,493.42 C627.20,495.45 641.73,496.13 643.57,494.28 C644.77,493.08 645.00,484.29 645.00,438.96 C645.00,377.32 645.99,383.00 635.27,383.00 C632.04,383.00 628.86,382.46 628.20,381.80 C627.50,381.10 627.00,377.77 627.00,373.86 C627.00,363.72 627.85,364.00 596.90,364.00 C577.10,364.00 571.00,364.30 570.17,365.30 C569.58,366.01 568.96,370.17 568.80,374.55 L 568.50 382.50 L 561.04 382.80 C556.94,382.96 553.01,383.58 552.29,384.17 C551.26,385.03 551.00,396.30 551.00,439.42 C551.00,474.36 551.36,493.96 552.00,494.60 C553.57,496.17 569.70,496.06 571.02,494.48 ZM 744.67 494.50 C746.35,493.27 746.48,490.76 746.49,458.67 C746.49,439.70 746.80,423.86 747.17,423.49 C747.55,423.12 750.92,422.84 754.67,422.88 C758.43,422.91 762.11,422.56 762.85,422.10 C763.64,421.60 764.53,418.26 765.00,414.03 C765.43,410.06 766.19,406.41 766.67,405.93 C767.16,405.44 770.70,404.76 774.53,404.42 C778.36,404.08 781.88,403.45 782.33,403.02 C783.49,401.93 783.15,366.88 781.96,365.46 C780.53,363.73 764.31,363.92 762.86,365.67 C762.10,366.59 761.78,371.83 761.91,381.31 C762.02,389.22 761.65,396.78 761.08,398.29 C760.09,400.88 759.74,401.00 753.05,401.00 C746.66,401.00 745.90,401.22 744.39,403.53 C743.16,405.40 742.86,407.44 743.23,411.28 C743.51,414.15 743.53,417.06 743.29,417.75 C742.98,418.59 740.54,419.00 735.92,419.00 C728.20,419.00 728.80,419.75 728.61,409.90 C728.46,402.09 727.27,401.00 718.91,401.00 C713.17,401.00 711.90,400.69 711.04,399.07 C710.45,397.97 710.00,390.39 710.00,381.60 C710.00,367.83 709.80,365.96 708.25,365.14 C706.09,363.99 691.22,364.37 690.02,365.60 C688.83,366.82 688.42,401.83 689.58,402.93 C690.09,403.40 693.59,404.03 697.38,404.32 C701.16,404.62 704.75,405.35 705.35,405.95 C705.95,406.55 706.61,410.16 706.83,413.99 C707.05,417.81 707.75,421.38 708.41,421.92 C709.06,422.46 712.94,423.04 717.04,423.20 L 724.50 423.50 L 725.32 432.50 C725.77,437.45 725.84,451.62 725.48,464.00 C724.61,493.72 724.60,493.23 726.61,494.71 C728.92,496.39 742.29,496.24 744.67,494.50 ZM 331.80 310.80 C332.70,309.90 333.00,296.58 333.00,257.00 C333.00,217.42 333.30,204.10 334.20,203.20 C335.03,202.37 340.20,202.00 351.00,202.00 C361.80,202.00 366.97,201.63 367.80,200.80 C369.69,198.91 369.39,183.53 367.43,181.57 C366.05,180.19 360.57,180.00 322.36,180.00 C294.29,180.00 278.18,180.37 276.93,181.04 C275.26,181.93 275.00,183.19 275.00,190.34 C275.00,202.67 274.57,202.38 293.33,202.45 C304.71,202.49 309.25,202.85 310.20,203.80 C311.23,204.83 311.54,215.93 311.69,257.16 C311.79,285.79 312.15,309.48 312.48,309.82 C314.29,311.62 330.17,312.43 331.80,310.80 ZM 482.84 311.10 C485.77,310.68 488.58,309.70 489.07,308.92 C489.57,308.14 489.98,304.51 489.98,300.86 L 490.00 294.22 L 497.47 293.84 C501.58,293.63 505.40,293.00 505.97,292.43 C507.48,290.92 507.65,201.25 506.15,199.75 C505.53,199.13 501.76,198.38 497.77,198.07 L 490.50 197.50 L 489.93 190.12 C489.49,184.51 488.90,182.40 487.49,181.37 C486.02,180.29 480.10,180.00 460.06,180.02 C446.00,180.02 433.84,180.45 433.04,180.95 C432.03,181.59 431.41,184.46 431.04,190.19 L 430.50 198.50 L 422.84 198.79 C417.59,198.99 414.79,199.55 413.95,200.56 C412.44,202.38 412.56,288.30 414.07,291.14 C414.84,292.56 416.57,292.97 422.76,293.21 L 430.50 293.50 L 431.00 301.20 C431.27,305.44 431.95,309.36 432.50,309.91 C434.18,311.58 472.99,312.50 482.84,311.10 ZM 624.80 310.29 C626.46,308.90 627.11,306.81 627.72,301.00 L 628.50 293.50 L 636.24 293.21 C645.64,292.85 645.80,292.63 645.05,281.00 L 644.50 272.50 L 635.40 272.21 C624.61,271.88 623.60,272.56 623.78,280.14 C623.84,282.90 623.48,286.25 622.97,287.58 L 622.05 290.00 L 598.06 290.00 C575.37,290.00 574.01,289.90 573.04,288.07 C571.90,285.95 571.76,210.74 572.88,205.50 L 573.52 202.50 L 598.13 202.23 L 622.73 201.97 L 623.36 205.73 C623.70,207.80 623.98,211.57 623.99,214.09 C624.00,218.06 624.35,218.84 626.62,219.87 C630.57,221.67 643.78,220.28 645.04,217.92 C646.29,215.59 646.28,204.86 645.02,201.57 C644.10,199.13 643.67,199.00 636.72,199.00 C632.70,199.00 628.91,198.51 628.30,197.90 C627.63,197.23 627.41,194.57 627.73,190.99 C628.21,185.71 628.03,184.93 625.68,182.59 L 623.09 180.00 L 597.74 180.00 C579.00,180.00 571.95,180.33 570.72,181.25 C569.49,182.18 568.99,184.42 568.78,190.00 L 568.50 197.50 L 561.22 198.07 C556.54,198.43 553.37,199.20 552.36,200.22 C550.95,201.62 550.79,206.93 550.94,246.58 C551.03,271.21 551.29,291.66 551.52,292.03 C551.75,292.40 555.40,292.99 559.63,293.35 C563.87,293.71 567.60,294.26 567.92,294.58 C568.24,294.90 568.72,298.38 569.00,302.31 C569.44,308.58 569.79,309.60 571.87,310.63 C573.48,311.42 582.14,311.85 598.46,311.95 C620.40,312.07 622.87,311.92 624.80,310.29 ZM 709.20 310.20 C709.73,309.67 710.09,298.60 710.04,284.52 C709.97,267.21 710.29,259.36 711.09,258.39 C712.81,256.31 759.22,256.35 760.94,258.43 C761.80,259.46 762.07,266.68 761.91,284.48 C761.77,300.16 762.06,309.46 762.71,310.11 C763.28,310.68 767.06,311.38 771.12,311.69 C777.38,312.16 778.84,311.96 780.75,310.37 L 783.00 308.50 L 783.04 255.14 C783.06,216.19 782.76,201.41 781.91,200.39 C781.13,199.46 778.57,199.00 774.08,199.00 C770.22,199.00 766.89,198.49 766.20,197.80 C765.49,197.09 765.00,193.65 765.00,189.34 C765.00,183.18 764.71,181.91 763.07,181.04 C760.46,179.64 711.54,179.64 708.93,181.04 C707.29,181.91 707.00,183.18 707.00,189.41 C707.00,194.08 706.54,197.12 705.75,197.77 C705.06,198.33 701.46,198.75 697.74,198.70 C694.02,198.66 690.51,199.09 689.94,199.66 C689.24,200.36 688.91,218.67 688.93,254.60 L 688.97 308.50 L 691.23 310.37 C693.16,311.96 694.62,312.16 700.88,311.69 C704.94,311.38 708.68,310.72 709.20,310.20 ZM 37.25 478.29 L 35.00 477.86 L 34.83 341.43 C34.74,266.39 34.63,204.21 34.58,203.25 C34.50,201.60 38.96,201.49 112.94,201.24 C175.03,201.04 191.54,201.25 192.17,202.24 C193.53,204.39 193.19,254.41 191.80,255.80 C190.89,256.71 175.52,257.00 128.73,257.00 C88.00,257.00 66.21,257.35 64.93,258.04 C63.04,259.05 63.00,261.33 63.00,367.84 C63.00,451.10 62.72,476.88 61.80,477.80 C60.64,478.96 42.60,479.32 37.25,478.29 ZM 79.47 477.78 C79.20,477.08 79.10,430.83 79.24,375.00 L 79.50 273.50 L 135.44 273.24 C179.52,273.04 191.54,273.25 192.17,274.24 C193.33,276.08 193.19,326.37 192.01,329.47 L 191.02 332.07 L 148.89 331.96 C125.72,331.89 106.37,332.23 105.89,332.71 C105.41,333.19 104.90,366.19 104.76,406.04 L 104.50 478.50 L 92.23 478.78 C82.97,478.99 79.84,478.75 79.47,477.78 ZM 125.20 477.80 C123.47,476.07 123.47,350.93 125.20,349.20 C126.77,347.63 188.16,347.48 191.07,349.04 C192.90,350.02 193.00,351.39 193.00,375.84 C193.00,394.54 192.67,401.93 191.80,402.80 C190.95,403.65 184.78,404.00 170.42,404.00 C152.90,404.00 150.06,404.22 148.88,405.65 C147.76,406.99 147.57,413.68 147.86,441.67 C148.12,467.75 147.91,476.41 146.98,477.52 C145.41,479.42 127.05,479.65 125.20,477.80 ZM 165.44 478.11 C165.20,477.87 165.00,464.92 165.00,449.33 L 165.00 421.00 L 178.02 421.00 L 191.05 421.00 L 192.04 423.61 C192.63,425.16 192.92,436.80 192.77,452.36 L 192.50 478.50 L 179.19 478.53 C171.87,478.54 165.69,478.35 165.44,478.11 ZM 299.08 418.83 C298.09,418.47 296.97,417.38 296.60,416.41 C295.71,414.09 295.98,388.64 296.92,387.14 C297.45,386.28 304.34,386.04 322.57,386.23 L 347.50 386.50 L 347.50 401.70 C347.50,411.41 347.10,417.30 346.40,418.00 C345.18,419.22 302.16,419.98 299.08,418.83 ZM 572.82 418.28 C571.64,416.86 572.07,389.16 573.31,387.25 C573.92,386.31 579.99,386.00 598.00,386.00 C616.01,386.00 622.08,386.31 622.69,387.25 C623.77,388.91 624.29,416.17 623.28,417.67 C622.11,419.38 574.21,419.96 572.82,418.28 ZM 435.54 289.06 C435.12,288.38 434.72,226.50 434.99,203.00 C435.00,202.36 443.65,202.00 458.93,202.00 C479.35,202.00 483.09,202.23 484.43,203.57 C485.81,204.95 486.00,210.22 486.00,246.37 C486.00,277.10 485.69,287.91 484.80,288.80 C483.32,290.28 436.45,290.53 435.54,289.06 ZM 717.20 235.33 C712.67,234.96 711.77,234.53 710.95,232.38 C709.53,228.63 709.73,204.67 711.20,203.20 C712.68,201.72 757.69,201.52 760.00,202.98 C761.22,203.75 761.50,206.62 761.50,218.41 C761.50,227.99 761.11,233.29 760.35,234.05 C759.15,235.25 727.51,236.19 717.20,235.33 Z" fill="rgb(254,254,254)"/>
</g>
</svg>